<?xml version="1.0" standalone="no"?>
<!DOCTYPE svg PUBLIC "-//W3C//DTD SVG 20010904//EN"
 "http://www.w3.org/TR/2001/REC-SVG-20010904/DTD/svg10.dtd">
<svg version="1.0" xmlns="http://www.w3.org/2000/svg"
 width="91.000000pt" height="144.000000pt" viewBox="0 0 91.000000 144.000000"
 preserveAspectRatio="xMidYMid meet">

<g transform="translate(0.000000,144.000000) scale(0.100000,-0.100000)"
fill="#000000" stroke="none">
<path d="M287 1384 c-4 -4 -7 -67 -7 -141 l0 -133 -75 0 c-67 0 -75 -2 -75
-19 0 -13 8 -21 23 -23 21 -3 22 -7 27 -148 6 -155 15 -187 75 -258 29 -34
117 -82 152 -82 l23 0 0 -170 c0 -195 5 -187 -90 -144 -56 25 -59 29 -70 74
-22 91 -115 169 -202 170 -37 0 -38 -1 -38 -37 1 -86 77 -179 168 -203 26 -7
79 -28 119 -47 66 -33 77 -35 150 -31 62 3 91 10 143 36 36 17 84 36 108 42
83 21 161 119 162 203 0 36 -1 37 -35 37 -96 0 -187 -81 -209 -187 -6 -25 -17
-36 -52 -53 -25 -11 -59 -23 -75 -27 l-29 -5 0 171 c0 171 0 171 23 171 64 1
162 74 199 148 20 41 24 67 28 192 5 141 6 145 28 148 14 2 22 10 22 23 0 17
-7 19 -60 19 l-60 0 0 128 c0 131 -7 159 -34 149 -13 -5 -16 -29 -18 -139 l-3
-133 -137 -3 -137 -3 -3 138 c-3 115 -6 138 -18 141 -9 1 -19 0 -23 -4z m393
-441 c0 -152 -11 -195 -66 -249 -51 -51 -97 -67 -180 -62 -84 5 -138 41 -176
117 -26 51 -28 62 -28 187 l0 133 225 -1 225 0 0 -125z m-530 -512 c29 -21 70
-78 70 -97 0 -52 -116 39 -135 104 -6 21 -4 23 17 17 12 -4 34 -15 48 -24z
m680 19 c0 -40 -84 -130 -120 -130 -24 0 -25 11 -6 48 17 33 41 55 81 76 35
19 45 20 45 6z"/>
</g>
</svg>
